<svg width="18" height="18" viewBox="0 0 18 18" fill="none" xmlns="http://www.w3.org/2000/svg">
<path d="M16.2197 14.6425C16.2197 14.6425 15.2541 15.5909 15.0175 15.8689C14.6321 16.2802 14.1779 16.4745 13.5825 16.4745C13.5253 16.4745 13.4642 16.4745 13.407 16.4706C12.2735 16.3983 11.2202 15.9565 10.4302 15.5794C8.27009 14.5359 6.37333 13.0543 4.79715 11.1767C3.49576 9.61133 2.62561 8.16405 2.04933 6.61014C1.69441 5.66179 1.56465 4.92292 1.6219 4.22594C1.66006 3.78034 1.8318 3.4109 2.14856 3.09479L3.44996 1.79605C3.63696 1.62085 3.83542 1.52563 4.03005 1.52563C4.27049 1.52563 4.46513 1.67036 4.58725 1.79224C4.59107 1.79605 4.59488 1.79986 4.5987 1.80366C4.8315 2.02076 5.05285 2.24546 5.28565 2.48541C5.40396 2.60728 5.52609 2.72916 5.64821 2.85484L6.6901 3.89459C7.09464 4.29831 7.09464 4.67155 6.6901 5.07527C6.57942 5.18572 6.47256 5.29617 6.36188 5.40281C6.0413 5.73035 6.29314 5.47903 5.96111 5.7761C5.95348 5.78372 5.94584 5.78753 5.94203 5.79514C5.61382 6.12268 5.67488 6.44261 5.74357 6.6597C5.74739 6.67113 5.75121 6.68255 5.75502 6.69398C6.02599 7.34906 6.40763 7.96605 6.98772 8.70112L6.99154 8.70493C8.04487 9.99986 9.15545 11.0091 10.3805 11.7823C10.537 11.8813 10.6973 11.9613 10.8499 12.0375C10.9873 12.106 11.1171 12.1708 11.2278 12.2393C11.243 12.2469 11.2583 12.2584 11.2736 12.266C11.4033 12.3307 11.5254 12.3612 11.6514 12.3612C11.9681 12.3612 12.1666 12.1632 12.2315 12.0984L12.9795 11.3519C13.1093 11.2224 13.3154 11.0662 13.5558 11.0662C13.7924 11.0662 13.9871 11.2148 14.1054 11.3442C14.1092 11.3481 14.1092 11.3481 14.113 11.3519L16.2159 13.4504C16.609 13.8389 16.2197 14.6425 16.2197 14.6425Z" stroke="#B8BBBD" stroke-width="1.5" stroke-linecap="round" stroke-linejoin="round"/>
</svg>
